<svg width="168" height="33" viewBox="0 0 168 33" fill="none" xmlns="http://www.w3.org/2000/svg">
    <g clip-path="url(#clip0_1_102)">
        <path d="M140.525 29.8336H142.126V28.0532H140.525C140.273 28.0532 140.084 28.1041 139.945 28.1931C139.807 28.2821 139.706 28.4093 139.656 28.5365C139.605 28.6764 139.567 28.8163 139.567 28.9434C139.567 29.096 139.593 29.2359 139.656 29.3631C139.719 29.503 139.819 29.6047 139.958 29.6937C140.097 29.7827 140.286 29.8209 140.525 29.8209M138.357 32.9111L140.223 30.3168H141.231L139.366 32.9111H138.357ZM142.126 32.9111V30.5966H140.525C140.122 30.5966 139.794 30.5203 139.53 30.355C139.265 30.2024 139.076 29.9862 138.937 29.7319C138.811 29.4775 138.748 29.2105 138.748 28.9307C138.748 28.6509 138.799 28.3839 138.912 28.1423C139.025 27.8879 139.202 27.6845 139.466 27.5319C139.731 27.3793 140.084 27.2902 140.538 27.2902H142.92V32.9111H142.113H142.126ZM130.165 32.9111V27.2902H130.959V30.9781C130.959 30.9781 130.959 31.118 130.959 31.207C130.959 31.296 130.959 31.385 130.947 31.4613C130.985 31.385 131.022 31.3087 131.073 31.2197C131.123 31.1307 131.161 31.0671 131.186 31.0163L133.543 27.2775H134.35V32.8983H133.556V29.2741C133.556 29.1596 133.556 29.0579 133.556 28.9689C133.556 28.8798 133.556 28.8035 133.568 28.7272C133.53 28.7908 133.493 28.8798 133.43 28.9816C133.367 29.0833 133.316 29.1596 133.278 29.2232L130.934 32.8983H130.165V32.9111ZM121.734 32.9111V27.2902H122.54V29.6174H125.074V27.2902H125.88V32.9111H125.074V30.3931H122.54V32.9111H121.734ZM114.701 30.8764H116.378L115.71 28.9816C115.71 28.9816 115.672 28.8671 115.647 28.8035C115.621 28.74 115.609 28.6764 115.584 28.6128C115.558 28.5492 115.546 28.4983 115.533 28.4475C115.521 28.4983 115.508 28.5492 115.483 28.6128C115.457 28.6764 115.445 28.74 115.42 28.8035C115.394 28.8671 115.382 28.9307 115.357 28.9816L114.689 30.8764H114.701ZM113.151 32.9111L115.168 27.2902H115.924L117.953 32.9111H117.108L116.642 31.6012H114.462L114.008 32.9111H113.151ZM105.173 32.9111V27.2902H109.232V32.9111H108.438V28.0787H105.98V32.9111H105.173ZM98.4306 33.0001L96.9435 29.592C96.9056 29.5157 96.8804 29.4267 96.8426 29.3376C96.8048 29.2486 96.7796 29.1596 96.7544 29.0833C96.7544 29.1469 96.7544 29.2232 96.7544 29.3249C96.7544 29.4267 96.7544 29.5157 96.7544 29.592V32.8983H95.9478V27.2775H96.7292L98.2794 30.8637C98.2794 30.8637 98.3298 30.9781 98.355 31.0417C98.3802 31.1053 98.4054 31.1689 98.4306 31.2324C98.4558 31.1689 98.4684 31.1053 98.4936 31.0417C98.5189 30.9781 98.5441 30.9145 98.5693 30.8509L100.119 27.2648H100.888V32.8856H100.082V29.5793C100.082 29.503 100.082 29.4139 100.082 29.3122C100.082 29.2105 100.082 29.1342 100.082 29.0706C100.056 29.1469 100.019 29.2359 99.9808 29.3249C99.943 29.4267 99.9052 29.5157 99.88 29.592L98.418 32.9874L98.4306 33.0001ZM89.5328 32.2371C89.8227 32.2371 90.0621 32.1735 90.2638 32.0463C90.4654 31.9191 90.6167 31.7411 90.7427 31.5376C90.8687 31.3215 90.957 31.0926 91.0074 30.8509C91.0578 30.5966 91.083 30.355 91.083 30.1134C91.083 29.859 91.0578 29.592 91.0074 29.3504C90.957 29.096 90.8687 28.8671 90.7427 28.6637C90.6167 28.4602 90.4654 28.2949 90.2638 28.1677C90.0621 28.0405 89.8227 27.9769 89.5328 27.9769C89.2429 27.9769 89.0035 28.0405 88.8018 28.1677C88.6002 28.2949 88.4489 28.4729 88.3229 28.6764C88.1969 28.8926 88.1213 29.1215 88.0582 29.3758C88.0078 29.6301 87.97 29.8717 87.97 30.1134C87.97 30.3677 87.9952 30.622 88.0582 30.8764C88.1087 31.1307 88.1969 31.3596 88.3229 31.5631C88.4489 31.7665 88.6002 31.9319 88.8018 32.059C89.0035 32.1862 89.2429 32.2498 89.5328 32.2498V32.2371ZM89.5328 33.0001C89.0917 33.0001 88.7262 32.9111 88.4111 32.7457C88.1087 32.5804 87.8566 32.3515 87.6801 32.0717C87.4911 31.792 87.3651 31.4741 87.2768 31.1307C87.1886 30.7874 87.1508 30.444 87.1508 30.1006C87.1508 29.7573 87.1886 29.4139 87.2768 29.0706C87.3651 28.7272 87.4911 28.4093 87.6801 28.1295C87.8692 27.8498 88.1087 27.6209 88.4111 27.4556C88.7136 27.2902 89.0917 27.2012 89.5328 27.2012C89.9739 27.2012 90.3394 27.2902 90.6545 27.4556C90.957 27.6209 91.209 27.8498 91.3855 28.1295C91.5745 28.4093 91.7005 28.7272 91.7888 29.0706C91.877 29.4139 91.9148 29.7573 91.9148 30.1006C91.9148 30.444 91.877 30.7874 91.7888 31.1307C91.7005 31.4741 91.5745 31.7793 91.3855 32.0717C91.1964 32.3515 90.957 32.5804 90.6545 32.7457C90.352 32.9111 89.9739 33.0001 89.5328 33.0001ZM79.3369 32.9111V27.2902H80.1435V30.0243L82.2986 27.2902H83.2186L81.6558 29.2486L83.6345 32.8983H82.7019L81.1139 29.9226L80.1435 31.1307V32.8983H79.3369V32.9111ZM68.8006 29.8336H70.4012V28.0532H68.8006C68.5486 28.0532 68.3595 28.1041 68.2209 28.1931C68.0822 28.2821 67.9814 28.4093 67.931 28.5365C67.8806 28.6764 67.8428 28.8163 67.8428 28.9434C67.8428 29.096 67.868 29.2359 67.931 29.3631C67.994 29.503 68.0948 29.6047 68.2335 29.6937C68.3721 29.7827 68.5612 29.8209 68.8006 29.8209V29.8336ZM66.6329 32.9111L68.4981 30.3168H69.5064L67.6411 32.9111H66.6329ZM70.4012 32.9111V30.5966H68.8006C68.3973 30.5966 68.0696 30.5203 67.805 30.355C67.5403 30.2024 67.3513 29.9862 67.2126 29.7319C67.0866 29.4775 67.0236 29.2105 67.0236 28.9307C67.0236 28.6509 67.074 28.3839 67.1874 28.1423C67.3008 27.8879 67.4773 27.6845 67.742 27.5319C68.0066 27.3793 68.3595 27.2902 68.8132 27.2902H71.1952V32.9111H70.3886H70.4012ZM59.7642 30.8764H61.4404L60.7724 28.9816C60.7724 28.9816 60.7346 28.8671 60.7094 28.8035C60.6842 28.74 60.6716 28.6764 60.6464 28.6128C60.6212 28.5492 60.6086 28.4983 60.596 28.4475C60.5834 28.4983 60.5708 28.5492 60.5456 28.6128C60.5204 28.6764 60.5078 28.74 60.4825 28.8035C60.4573 28.8671 60.4447 28.9307 60.4195 28.9816L59.7516 30.8764H59.7642ZM58.2014 32.9111L60.2179 27.2902H60.9741L63.0032 32.9111H62.1588L61.6924 31.6012H59.5121L59.0584 32.9111H58.2014ZM50.1606 32.9111V27.2902H50.9672V29.6174H53.5004V27.2902H54.307V32.9111H53.5004V30.3931H50.9672V32.9111H50.1606ZM43.7708 26.7561C43.4179 26.7561 43.128 26.6926 42.8885 26.5781C42.6491 26.4637 42.4726 26.2983 42.3592 26.0949C42.2458 25.8914 42.1828 25.6752 42.1828 25.4336H42.8507C42.8507 25.5735 42.8885 25.6879 42.9642 25.7897C43.0398 25.8914 43.1406 25.9804 43.2792 26.0313C43.4179 26.0949 43.5817 26.1203 43.7582 26.1203C43.9346 26.1203 44.0984 26.0949 44.2371 26.0313C44.3757 25.9677 44.4891 25.8914 44.5648 25.7897C44.6404 25.6879 44.6782 25.5608 44.6782 25.4336H45.3462C45.3462 25.6752 45.2831 25.8914 45.1697 26.0949C45.0563 26.2983 44.8672 26.4509 44.6404 26.5781C44.4009 26.6926 44.111 26.7561 43.7582 26.7561H43.7708ZM41.7038 32.9111V27.2902H42.4978V30.9781C42.4978 30.9781 42.4978 31.118 42.4978 31.207C42.4978 31.296 42.4978 31.385 42.4852 31.4613C42.5231 31.385 42.5609 31.3087 42.6113 31.2197C42.6617 31.1307 42.6995 31.0671 42.7247 31.0163L45.0815 27.2775H45.8881V32.8983H45.0941V29.2741C45.0941 29.1596 45.0941 29.0579 45.0941 28.9689C45.0941 28.8798 45.0941 28.8035 45.1067 28.7272C45.0689 28.7908 45.0311 28.8798 44.9681 28.9816C44.905 29.0833 44.8672 29.1596 44.8168 29.2232L42.4726 32.8983H41.7038V32.9111ZM34.6587 30.8764H36.3349L35.6669 28.9816C35.6669 28.9816 35.6291 28.8671 35.6039 28.8035C35.5787 28.74 35.5661 28.6764 35.5409 28.6128C35.5157 28.5492 35.5031 28.4983 35.4905 28.4475C35.4779 28.4983 35.4653 28.5492 35.4401 28.6128C35.4149 28.6764 35.4023 28.74 35.3771 28.8035C35.3519 28.8671 35.3393 28.9307 35.314 28.9816L34.6461 30.8764H34.6587ZM33.1085 32.9111L35.125 27.2902H35.8812L37.9103 32.9111H37.0659L36.5996 31.6012H34.4192L33.9655 32.9111H33.1085ZM28.3949 32.9111V30.2405C28.3067 30.3931 28.1807 30.533 28.042 30.6475C27.9034 30.7619 27.7396 30.8509 27.5505 30.9145C27.3615 30.9781 27.1598 31.0035 26.9203 31.0035C26.5297 31.0035 26.1894 30.9145 25.9121 30.7492C25.6348 30.5839 25.4206 30.3295 25.2693 29.9989C25.1181 29.6683 25.0425 29.2613 25.0425 28.7908V27.303H25.8491V28.74C25.8491 29.0706 25.8995 29.3504 25.9877 29.5665C26.0759 29.7827 26.2272 29.9608 26.4036 30.0625C26.5927 30.1769 26.8195 30.2278 27.1094 30.2278C27.311 30.2278 27.5001 30.1897 27.6639 30.1388C27.8278 30.0752 27.9538 29.9862 28.0672 29.859C28.1681 29.7319 28.2563 29.5793 28.3067 29.3885C28.3571 29.1978 28.3949 28.9816 28.3949 28.74V27.303H29.2015V32.9238H28.3949V32.9111Z" fill="#4E6035"/>
        <path d="M158.22 15.1457H167.987V12.3098H161.219V8.90173H166.992V6.28208H161.219V3.06474H167.987V0.216185H158.22V15.1457ZM153.809 15.1457L153.128 0.216185H149.977L145.642 8.7237L141.281 0.216185H138.131L137.437 15.1457H140.424L140.865 5.60809L144.697 13.1618H146.575L150.381 5.65896L150.822 15.1457H153.809ZM129.926 0.216185V15.1457H132.925V0.216185H129.926ZM126.473 0.216185H115.205V2.95029H119.352V15.1584H122.339V2.95029H126.485V0.216185H126.473ZM104.341 2.95029H107.24C108.45 2.95029 109.572 3.42081 109.572 5.03584C109.572 6.65087 108.45 7.14682 107.24 7.14682H104.341V2.95029ZM110.782 12.4116L109.446 9.4867C111.198 8.8 112.344 7.18497 112.344 5.02312C112.344 2.1237 110.315 0.203468 107.442 0.203468H101.329V15.1329H104.329V9.84277H106.484L108.74 15.1329H112.571V12.3988H110.769L110.782 12.4116ZM89.3815 10.2879L91.0073 6.7526L92.6584 10.2879H89.3815ZM94.8891 15.1457H98.2038L90.9947 0L83.811 15.1457H87.1508L88.2473 12.7549H93.7926L94.8891 15.1457ZM80.0552 0.216185L75.8206 8.90173L71.6237 0.216185H68.2587L75.8332 15.3618L83.395 0.216185H80.0552ZM58.8441 12.348C56.2479 12.348 54.2566 10.237 54.2566 7.68092C54.2566 5.12486 56.2479 3.01387 58.8441 3.01387C61.4404 3.01387 63.3938 5.12486 63.3938 7.68092C63.3938 10.237 61.4278 12.348 58.8441 12.348ZM58.8441 15.3618C63.0788 15.3618 66.28 11.9283 66.28 7.68092C66.28 3.43353 63.0662 0 58.8441 0C54.6221 0 51.3578 3.43353 51.3578 7.68092C51.3578 11.9283 54.5716 15.3618 58.8441 15.3618ZM47.7407 15.1457L47.0602 0.216185H43.9094L39.5739 8.7237L35.2258 0.216185H32.075L31.3818 15.1457H34.3688L34.8099 5.60809L38.6413 13.1618H40.5191L44.3253 5.65896L44.7664 15.1457H47.7533H47.7407ZM19.3332 10.2879L20.959 6.7526L22.6101 10.2879H19.3332ZM24.8534 15.1457H28.168L20.9716 0L13.7878 15.1457H17.1277L18.2242 12.7549H23.7695L24.866 15.1457H24.8534ZM5.79745 15.3618C8.92303 15.3618 11.3806 13.6069 11.3806 10.7584C11.3806 7.68092 8.97344 7.01965 6.50323 6.40925C4.22206 5.83699 3.50368 5.40462 3.50368 4.52717C3.50368 3.73873 4.31028 2.83584 5.81005 2.83584C7.09557 2.83584 8.05341 3.52254 8.36849 4.56532L11.0782 3.67514C10.3598 1.47514 8.45671 0 5.73443 0C3.01215 0 0.491523 1.76763 0.491523 4.59075C0.491523 7.41387 2.82311 8.32948 5.01605 8.83815C7.29722 9.37225 8.3937 9.563 8.3937 10.7965C8.3937 11.6486 7.6123 12.526 5.89827 12.526C4.18425 12.526 3.27682 11.9029 2.72228 10.6312L0 11.5214C0.806602 13.7595 2.89872 15.3618 5.79745 15.3618Z" fill="#4E6035"/>
    </g>
    <defs>
        <clipPath id="clip0_1_102">
            <rect width="168" height="33" fill="white"/>
        </clipPath>
    </defs>
</svg>
